<mxfile host="app.diagrams.net" modified="2022-05-07T07:17:10.822Z" agent="5.0 (Windows NT 10.0; Win64; x64) AppleWebKit/537.36 (KHTML, like Gecko) Chrome/101.0.4951.54 Safari/537.36" etag="ml6CzduABx3mwQPnBAuj" version="18.0.1" type="github">
  <diagram id="C5RBs43oDa-KdzZeNtuy" name="Page-1">
    <mxGraphModel dx="1420" dy="746" grid="1" gridSize="10" guides="1" tooltips="1" connect="1" arrows="1" fold="1" page="1" pageScale="1" pageWidth="1654" pageHeight="1169" math="0" shadow="0">
      <root>
        <mxCell id="WIyWlLk6GJQsqaUBKTNV-0" />
        <mxCell id="WIyWlLk6GJQsqaUBKTNV-1" parent="WIyWlLk6GJQsqaUBKTNV-0" />
        <mxCell id="nWi5VwVpe2gakzUOj9-z-0" value="供暖前试运行流程" style="text;html=1;align=center;verticalAlign=middle;whiteSpace=wrap;rounded=0;fontSize=20;fillColor=#e3c800;fontColor=#000000;strokeColor=#B09500;" vertex="1" parent="WIyWlLk6GJQsqaUBKTNV-1">
          <mxGeometry x="182.5" y="80" width="190" height="30" as="geometry" />
        </mxCell>
        <mxCell id="nWi5VwVpe2gakzUOj9-z-1" value="供暖期运行流程" style="text;html=1;align=center;verticalAlign=middle;whiteSpace=wrap;rounded=0;fontSize=20;fillColor=#e51400;strokeColor=#B20000;fontColor=#ffffff;" vertex="1" parent="WIyWlLk6GJQsqaUBKTNV-1">
          <mxGeometry x="870" y="80" width="190" height="30" as="geometry" />
        </mxCell>
        <mxCell id="nWi5VwVpe2gakzUOj9-z-3" value="非供暖期运行流程" style="text;html=1;align=center;verticalAlign=middle;whiteSpace=wrap;rounded=0;fontSize=20;fillColor=#dae8fc;strokeColor=#6c8ebf;" vertex="1" parent="WIyWlLk6GJQsqaUBKTNV-1">
          <mxGeometry x="1390" y="80" width="190" height="30" as="geometry" />
        </mxCell>
        <mxCell id="nWi5VwVpe2gakzUOj9-z-8" style="edgeStyle=orthogonalEdgeStyle;rounded=0;orthogonalLoop=1;jettySize=auto;html=1;exitX=0.5;exitY=1;exitDx=0;exitDy=0;entryX=0.5;entryY=0;entryDx=0;entryDy=0;fontSize=12;" edge="1" parent="WIyWlLk6GJQsqaUBKTNV-1" source="nWi5VwVpe2gakzUOj9-z-4" target="nWi5VwVpe2gakzUOj9-z-7">
          <mxGeometry relative="1" as="geometry" />
        </mxCell>
        <mxCell id="nWi5VwVpe2gakzUOj9-z-4" value="开始" style="rounded=1;whiteSpace=wrap;html=1;fontSize=12;" vertex="1" parent="WIyWlLk6GJQsqaUBKTNV-1">
          <mxGeometry x="222.5" y="120" width="90" height="30" as="geometry" />
        </mxCell>
        <mxCell id="nWi5VwVpe2gakzUOj9-z-11" value="Y" style="edgeStyle=orthogonalEdgeStyle;rounded=0;orthogonalLoop=1;jettySize=auto;html=1;fontSize=12;" edge="1" parent="WIyWlLk6GJQsqaUBKTNV-1" source="nWi5VwVpe2gakzUOj9-z-5" target="nWi5VwVpe2gakzUOj9-z-6">
          <mxGeometry relative="1" as="geometry" />
        </mxCell>
        <mxCell id="nWi5VwVpe2gakzUOj9-z-13" value="N" style="edgeStyle=orthogonalEdgeStyle;rounded=0;orthogonalLoop=1;jettySize=auto;html=1;fontSize=12;" edge="1" parent="WIyWlLk6GJQsqaUBKTNV-1" source="nWi5VwVpe2gakzUOj9-z-5" target="nWi5VwVpe2gakzUOj9-z-12">
          <mxGeometry relative="1" as="geometry" />
        </mxCell>
        <mxCell id="nWi5VwVpe2gakzUOj9-z-5" value="温度传感器信号&lt;br&gt;是否一致" style="rhombus;whiteSpace=wrap;html=1;fontSize=12;" vertex="1" parent="WIyWlLk6GJQsqaUBKTNV-1">
          <mxGeometry x="202.5" y="270" width="130" height="100" as="geometry" />
        </mxCell>
        <mxCell id="nWi5VwVpe2gakzUOj9-z-16" value="N" style="edgeStyle=orthogonalEdgeStyle;rounded=0;orthogonalLoop=1;jettySize=auto;html=1;fontSize=12;" edge="1" parent="WIyWlLk6GJQsqaUBKTNV-1" source="nWi5VwVpe2gakzUOj9-z-6" target="nWi5VwVpe2gakzUOj9-z-15">
          <mxGeometry relative="1" as="geometry" />
        </mxCell>
        <mxCell id="nWi5VwVpe2gakzUOj9-z-19" value="Y" style="edgeStyle=orthogonalEdgeStyle;rounded=0;orthogonalLoop=1;jettySize=auto;html=1;fontSize=12;" edge="1" parent="WIyWlLk6GJQsqaUBKTNV-1" source="nWi5VwVpe2gakzUOj9-z-6" target="nWi5VwVpe2gakzUOj9-z-18">
          <mxGeometry relative="1" as="geometry" />
        </mxCell>
        <mxCell id="nWi5VwVpe2gakzUOj9-z-6" value="压力传感器信号&lt;br&gt;是否一致" style="rhombus;whiteSpace=wrap;html=1;fontSize=12;" vertex="1" parent="WIyWlLk6GJQsqaUBKTNV-1">
          <mxGeometry x="210" y="420" width="115" height="100" as="geometry" />
        </mxCell>
        <mxCell id="nWi5VwVpe2gakzUOj9-z-10" value="" style="edgeStyle=orthogonalEdgeStyle;rounded=0;orthogonalLoop=1;jettySize=auto;html=1;fontSize=12;" edge="1" parent="WIyWlLk6GJQsqaUBKTNV-1" source="nWi5VwVpe2gakzUOj9-z-7" target="nWi5VwVpe2gakzUOj9-z-5">
          <mxGeometry relative="1" as="geometry" />
        </mxCell>
        <mxCell id="nWi5VwVpe2gakzUOj9-z-7" value="静态检测开始" style="shape=parallelogram;perimeter=parallelogramPerimeter;whiteSpace=wrap;html=1;fixedSize=1;fontSize=12;" vertex="1" parent="WIyWlLk6GJQsqaUBKTNV-1">
          <mxGeometry x="207.5" y="170" width="120" height="60" as="geometry" />
        </mxCell>
        <mxCell id="nWi5VwVpe2gakzUOj9-z-12" value="提示信息：温度传感器信号异常" style="rounded=0;whiteSpace=wrap;html=1;fontSize=12;fillColor=#fa6800;fontColor=#000000;strokeColor=#C73500;" vertex="1" parent="WIyWlLk6GJQsqaUBKTNV-1">
          <mxGeometry x="402.5" y="290" width="120" height="60" as="geometry" />
        </mxCell>
        <mxCell id="nWi5VwVpe2gakzUOj9-z-14" value="&lt;h1&gt;&lt;font style=&quot;font-size: 20px;&quot;&gt;温度传感器检测&lt;/font&gt;&lt;/h1&gt;&lt;p&gt;温度传感器在静态下，一次侧两传感器和二次侧两传感器应分别保持在小范围内一致，如果超出偏差则报警提示。&lt;/p&gt;" style="text;html=1;strokeColor=none;fillColor=none;spacing=5;spacingTop=-20;whiteSpace=wrap;overflow=hidden;rounded=0;fontSize=12;" vertex="1" parent="WIyWlLk6GJQsqaUBKTNV-1">
          <mxGeometry x="2.5" y="270" width="190" height="120" as="geometry" />
        </mxCell>
        <mxCell id="nWi5VwVpe2gakzUOj9-z-15" value="提示信息：压力传感器信号异常" style="rounded=0;whiteSpace=wrap;html=1;fontSize=12;fillColor=#fa6800;fontColor=#000000;strokeColor=#C73500;" vertex="1" parent="WIyWlLk6GJQsqaUBKTNV-1">
          <mxGeometry x="402.5" y="440" width="120" height="60" as="geometry" />
        </mxCell>
        <mxCell id="nWi5VwVpe2gakzUOj9-z-17" value="&lt;h1&gt;&lt;font style=&quot;font-size: 20px;&quot;&gt;压力传感器检测&lt;/font&gt;&lt;/h1&gt;&lt;p&gt;压力传感器在静态下，一次侧两传感器和二次侧两传感器应分别保持在小范围内一致，如果超出偏差则报警提示。&lt;/p&gt;" style="text;html=1;strokeColor=none;fillColor=none;spacing=5;spacingTop=-20;whiteSpace=wrap;overflow=hidden;rounded=0;fontSize=12;" vertex="1" parent="WIyWlLk6GJQsqaUBKTNV-1">
          <mxGeometry x="2.5" y="420" width="190" height="120" as="geometry" />
        </mxCell>
        <mxCell id="nWi5VwVpe2gakzUOj9-z-21" value="N" style="edgeStyle=orthogonalEdgeStyle;rounded=0;orthogonalLoop=1;jettySize=auto;html=1;fontSize=12;" edge="1" parent="WIyWlLk6GJQsqaUBKTNV-1" source="nWi5VwVpe2gakzUOj9-z-18" target="nWi5VwVpe2gakzUOj9-z-20">
          <mxGeometry relative="1" as="geometry" />
        </mxCell>
        <mxCell id="nWi5VwVpe2gakzUOj9-z-23" value="Y" style="edgeStyle=orthogonalEdgeStyle;rounded=0;orthogonalLoop=1;jettySize=auto;html=1;fontSize=12;" edge="1" parent="WIyWlLk6GJQsqaUBKTNV-1" source="nWi5VwVpe2gakzUOj9-z-18" target="nWi5VwVpe2gakzUOj9-z-22">
          <mxGeometry relative="1" as="geometry" />
        </mxCell>
        <mxCell id="nWi5VwVpe2gakzUOj9-z-18" value="所有挂接仪表&lt;br&gt;通讯是否正常" style="rhombus;whiteSpace=wrap;html=1;fontSize=12;" vertex="1" parent="WIyWlLk6GJQsqaUBKTNV-1">
          <mxGeometry x="205" y="570" width="125" height="90" as="geometry" />
        </mxCell>
        <mxCell id="nWi5VwVpe2gakzUOj9-z-20" value="提示信息：XX仪表通讯异常" style="rounded=0;whiteSpace=wrap;html=1;fontSize=12;fillColor=#fa6800;fontColor=#000000;strokeColor=#C73500;" vertex="1" parent="WIyWlLk6GJQsqaUBKTNV-1">
          <mxGeometry x="402.5" y="585" width="120" height="60" as="geometry" />
        </mxCell>
        <mxCell id="nWi5VwVpe2gakzUOj9-z-26" value="" style="edgeStyle=orthogonalEdgeStyle;rounded=0;orthogonalLoop=1;jettySize=auto;html=1;fontSize=20;" edge="1" parent="WIyWlLk6GJQsqaUBKTNV-1" source="nWi5VwVpe2gakzUOj9-z-22" target="nWi5VwVpe2gakzUOj9-z-25">
          <mxGeometry relative="1" as="geometry" />
        </mxCell>
        <mxCell id="nWi5VwVpe2gakzUOj9-z-29" value="" style="edgeStyle=orthogonalEdgeStyle;rounded=0;orthogonalLoop=1;jettySize=auto;html=1;fontSize=12;" edge="1" parent="WIyWlLk6GJQsqaUBKTNV-1" source="nWi5VwVpe2gakzUOj9-z-22" target="nWi5VwVpe2gakzUOj9-z-28">
          <mxGeometry relative="1" as="geometry" />
        </mxCell>
        <mxCell id="nWi5VwVpe2gakzUOj9-z-22" value="静态检测结束&lt;br&gt;动态测试开启" style="shape=parallelogram;perimeter=parallelogramPerimeter;whiteSpace=wrap;html=1;fixedSize=1;fontSize=12;" vertex="1" parent="WIyWlLk6GJQsqaUBKTNV-1">
          <mxGeometry x="207.5" y="700" width="120" height="60" as="geometry" />
        </mxCell>
        <mxCell id="nWi5VwVpe2gakzUOj9-z-24" value="&lt;h1&gt;&lt;font style=&quot;font-size: 20px;&quot;&gt;所有仪表通讯检测&lt;/font&gt;&lt;/h1&gt;&lt;p&gt;仪表若有检测通讯正常的指令优先用现有指令，若没有相关指令可以利用读取数据间接判断通讯是否存在异常。&lt;/p&gt;" style="text;html=1;strokeColor=none;fillColor=none;spacing=5;spacingTop=-20;whiteSpace=wrap;overflow=hidden;rounded=0;fontSize=12;" vertex="1" parent="WIyWlLk6GJQsqaUBKTNV-1">
          <mxGeometry x="2.5" y="580" width="190" height="120" as="geometry" />
        </mxCell>
        <mxCell id="nWi5VwVpe2gakzUOj9-z-25" value="提示信息：静态测试正常，下面进行动态测试" style="rounded=0;whiteSpace=wrap;html=1;fontSize=12;fillColor=#60a917;fontColor=#ffffff;strokeColor=#2D7600;" vertex="1" parent="WIyWlLk6GJQsqaUBKTNV-1">
          <mxGeometry x="402.5" y="700" width="120" height="60" as="geometry" />
        </mxCell>
        <mxCell id="nWi5VwVpe2gakzUOj9-z-27" value="&lt;h1&gt;&lt;font style=&quot;font-size: 20px;&quot;&gt;静态检测&lt;/font&gt;&lt;/h1&gt;&lt;p&gt;各管道内热载体静止，各泵未开启&lt;/p&gt;" style="text;html=1;strokeColor=none;fillColor=none;spacing=5;spacingTop=-20;whiteSpace=wrap;overflow=hidden;rounded=0;fontSize=12;" vertex="1" parent="WIyWlLk6GJQsqaUBKTNV-1">
          <mxGeometry x="2.5" y="150" width="190" height="120" as="geometry" />
        </mxCell>
        <mxCell id="nWi5VwVpe2gakzUOj9-z-32" value="N" style="edgeStyle=orthogonalEdgeStyle;rounded=0;orthogonalLoop=1;jettySize=auto;html=1;fontSize=12;" edge="1" parent="WIyWlLk6GJQsqaUBKTNV-1" source="nWi5VwVpe2gakzUOj9-z-28" target="nWi5VwVpe2gakzUOj9-z-31">
          <mxGeometry relative="1" as="geometry" />
        </mxCell>
        <mxCell id="nWi5VwVpe2gakzUOj9-z-34" value="" style="edgeStyle=orthogonalEdgeStyle;rounded=0;orthogonalLoop=1;jettySize=auto;html=1;fontSize=12;" edge="1" parent="WIyWlLk6GJQsqaUBKTNV-1" source="nWi5VwVpe2gakzUOj9-z-28" target="nWi5VwVpe2gakzUOj9-z-33">
          <mxGeometry relative="1" as="geometry" />
        </mxCell>
        <mxCell id="nWi5VwVpe2gakzUOj9-z-28" value="&lt;font style=&quot;font-size: 12px;&quot;&gt;所有传感器、仪表&lt;br&gt;执行机构测试&lt;/font&gt;" style="rhombus;whiteSpace=wrap;html=1;fontSize=20;" vertex="1" parent="WIyWlLk6GJQsqaUBKTNV-1">
          <mxGeometry x="190" y="810" width="155" height="90" as="geometry" />
        </mxCell>
        <mxCell id="nWi5VwVpe2gakzUOj9-z-30" value="&lt;h1&gt;&lt;font style=&quot;font-size: 20px;&quot;&gt;动态检测&lt;/font&gt;&lt;/h1&gt;&lt;p&gt;因动态检测情况复杂，需要将相关信息一并显示出来方便调试人员进行判断。比如：一次侧压差数据，温差数据（如果有温度运行），热表数据（流量与电调阀开度做对比或设置相关度系数）。二次侧同理。其中水箱液位信号现场测试不易操作，可以在水箱安装上下两个测试按键（用尽可能与真实信号等同），等同于液位传感器信号。&lt;/p&gt;" style="text;html=1;strokeColor=none;fillColor=none;spacing=5;spacingTop=-20;whiteSpace=wrap;overflow=hidden;rounded=0;fontSize=12;" vertex="1" parent="WIyWlLk6GJQsqaUBKTNV-1">
          <mxGeometry y="750" width="190" height="240" as="geometry" />
        </mxCell>
        <mxCell id="nWi5VwVpe2gakzUOj9-z-31" value="提示信息：提示对应错误代码" style="rounded=0;whiteSpace=wrap;html=1;fontSize=12;fillColor=#fa6800;fontColor=#000000;strokeColor=#C73500;" vertex="1" parent="WIyWlLk6GJQsqaUBKTNV-1">
          <mxGeometry x="402.5" y="825" width="120" height="60" as="geometry" />
        </mxCell>
        <mxCell id="nWi5VwVpe2gakzUOj9-z-33" value="结束" style="rounded=1;whiteSpace=wrap;html=1;fontSize=12;" vertex="1" parent="WIyWlLk6GJQsqaUBKTNV-1">
          <mxGeometry x="222.5" y="940" width="90" height="30" as="geometry" />
        </mxCell>
        <mxCell id="nWi5VwVpe2gakzUOj9-z-37" value="" style="edgeStyle=orthogonalEdgeStyle;rounded=0;orthogonalLoop=1;jettySize=auto;html=1;fontSize=12;" edge="1" parent="WIyWlLk6GJQsqaUBKTNV-1" source="nWi5VwVpe2gakzUOj9-z-35">
          <mxGeometry relative="1" as="geometry">
            <mxPoint x="965" y="190" as="targetPoint" />
          </mxGeometry>
        </mxCell>
        <mxCell id="nWi5VwVpe2gakzUOj9-z-35" value="开始" style="rounded=1;whiteSpace=wrap;html=1;fontSize=12;" vertex="1" parent="WIyWlLk6GJQsqaUBKTNV-1">
          <mxGeometry x="920" y="120" width="90" height="30" as="geometry" />
        </mxCell>
        <mxCell id="nWi5VwVpe2gakzUOj9-z-41" value="温度超允差&amp;amp;延时已到" style="edgeStyle=orthogonalEdgeStyle;rounded=0;orthogonalLoop=1;jettySize=auto;html=1;fontSize=12;" edge="1" parent="WIyWlLk6GJQsqaUBKTNV-1" source="nWi5VwVpe2gakzUOj9-z-38" target="nWi5VwVpe2gakzUOj9-z-40">
          <mxGeometry relative="1" as="geometry" />
        </mxCell>
        <mxCell id="nWi5VwVpe2gakzUOj9-z-47" value="温度在允差内" style="edgeStyle=orthogonalEdgeStyle;rounded=0;orthogonalLoop=1;jettySize=auto;html=1;fontSize=12;" edge="1" parent="WIyWlLk6GJQsqaUBKTNV-1" source="nWi5VwVpe2gakzUOj9-z-38" target="nWi5VwVpe2gakzUOj9-z-46">
          <mxGeometry relative="1" as="geometry" />
        </mxCell>
        <mxCell id="nWi5VwVpe2gakzUOj9-z-38" value="二次侧回水温度判断" style="rhombus;whiteSpace=wrap;html=1;fontSize=12;" vertex="1" parent="WIyWlLk6GJQsqaUBKTNV-1">
          <mxGeometry x="907.5" y="190" width="115" height="80" as="geometry" />
        </mxCell>
        <mxCell id="nWi5VwVpe2gakzUOj9-z-43" value="Y" style="edgeStyle=orthogonalEdgeStyle;rounded=0;orthogonalLoop=1;jettySize=auto;html=1;fontSize=12;" edge="1" parent="WIyWlLk6GJQsqaUBKTNV-1" source="nWi5VwVpe2gakzUOj9-z-40" target="nWi5VwVpe2gakzUOj9-z-42">
          <mxGeometry relative="1" as="geometry" />
        </mxCell>
        <mxCell id="nWi5VwVpe2gakzUOj9-z-45" value="N" style="edgeStyle=orthogonalEdgeStyle;rounded=0;orthogonalLoop=1;jettySize=auto;html=1;fontSize=12;" edge="1" parent="WIyWlLk6GJQsqaUBKTNV-1" source="nWi5VwVpe2gakzUOj9-z-40">
          <mxGeometry relative="1" as="geometry">
            <mxPoint x="1370" y="360" as="targetPoint" />
          </mxGeometry>
        </mxCell>
        <mxCell id="nWi5VwVpe2gakzUOj9-z-40" value="温度 &amp;gt; 设定值 + 允差" style="rhombus;whiteSpace=wrap;html=1;fontSize=12;" vertex="1" parent="WIyWlLk6GJQsqaUBKTNV-1">
          <mxGeometry x="1172.5" y="190" width="115" height="80" as="geometry" />
        </mxCell>
        <mxCell id="nWi5VwVpe2gakzUOj9-z-49" value="" style="edgeStyle=orthogonalEdgeStyle;rounded=0;orthogonalLoop=1;jettySize=auto;html=1;fontSize=12;" edge="1" parent="WIyWlLk6GJQsqaUBKTNV-1" source="nWi5VwVpe2gakzUOj9-z-42" target="nWi5VwVpe2gakzUOj9-z-48">
          <mxGeometry relative="1" as="geometry" />
        </mxCell>
        <mxCell id="nWi5VwVpe2gakzUOj9-z-42" value="减小一次侧&lt;br&gt;电调阀开度" style="whiteSpace=wrap;html=1;" vertex="1" parent="WIyWlLk6GJQsqaUBKTNV-1">
          <mxGeometry x="1170" y="360" width="120" height="60" as="geometry" />
        </mxCell>
        <mxCell id="nWi5VwVpe2gakzUOj9-z-53" style="edgeStyle=orthogonalEdgeStyle;rounded=0;orthogonalLoop=1;jettySize=auto;html=1;entryX=0.5;entryY=0;entryDx=0;entryDy=0;fontSize=12;" edge="1" parent="WIyWlLk6GJQsqaUBKTNV-1" source="nWi5VwVpe2gakzUOj9-z-44" target="nWi5VwVpe2gakzUOj9-z-48">
          <mxGeometry relative="1" as="geometry" />
        </mxCell>
        <mxCell id="nWi5VwVpe2gakzUOj9-z-44" value="增大一次侧&lt;br&gt;电调阀开度" style="whiteSpace=wrap;html=1;" vertex="1" parent="WIyWlLk6GJQsqaUBKTNV-1">
          <mxGeometry x="1300" y="360" width="120" height="60" as="geometry" />
        </mxCell>
        <mxCell id="nWi5VwVpe2gakzUOj9-z-57" value="缺水" style="edgeStyle=orthogonalEdgeStyle;rounded=0;orthogonalLoop=1;jettySize=auto;html=1;fontSize=12;" edge="1" parent="WIyWlLk6GJQsqaUBKTNV-1" source="nWi5VwVpe2gakzUOj9-z-46" target="nWi5VwVpe2gakzUOj9-z-56">
          <mxGeometry relative="1" as="geometry" />
        </mxCell>
        <mxCell id="nWi5VwVpe2gakzUOj9-z-63" value="压力正常" style="edgeStyle=orthogonalEdgeStyle;rounded=0;orthogonalLoop=1;jettySize=auto;html=1;fontSize=12;" edge="1" parent="WIyWlLk6GJQsqaUBKTNV-1" source="nWi5VwVpe2gakzUOj9-z-46" target="nWi5VwVpe2gakzUOj9-z-62">
          <mxGeometry relative="1" as="geometry" />
        </mxCell>
        <mxCell id="nWi5VwVpe2gakzUOj9-z-46" value="检测二次侧&lt;br&gt;回水压力" style="rhombus;whiteSpace=wrap;html=1;" vertex="1" parent="WIyWlLk6GJQsqaUBKTNV-1">
          <mxGeometry x="925" y="350" width="80" height="80" as="geometry" />
        </mxCell>
        <mxCell id="nWi5VwVpe2gakzUOj9-z-54" style="edgeStyle=orthogonalEdgeStyle;rounded=0;orthogonalLoop=1;jettySize=auto;html=1;entryX=0.5;entryY=0;entryDx=0;entryDy=0;fontSize=12;" edge="1" parent="WIyWlLk6GJQsqaUBKTNV-1" source="nWi5VwVpe2gakzUOj9-z-48" target="nWi5VwVpe2gakzUOj9-z-46">
          <mxGeometry relative="1" as="geometry" />
        </mxCell>
        <mxCell id="nWi5VwVpe2gakzUOj9-z-48" value="延时" style="whiteSpace=wrap;html=1;" vertex="1" parent="WIyWlLk6GJQsqaUBKTNV-1">
          <mxGeometry x="1240" y="500" width="120" height="60" as="geometry" />
        </mxCell>
        <mxCell id="nWi5VwVpe2gakzUOj9-z-59" value="一网补充" style="edgeStyle=orthogonalEdgeStyle;rounded=0;orthogonalLoop=1;jettySize=auto;html=1;fontSize=12;" edge="1" parent="WIyWlLk6GJQsqaUBKTNV-1" source="nWi5VwVpe2gakzUOj9-z-56" target="nWi5VwVpe2gakzUOj9-z-58">
          <mxGeometry x="0.5556" relative="1" as="geometry">
            <mxPoint as="offset" />
          </mxGeometry>
        </mxCell>
        <mxCell id="nWi5VwVpe2gakzUOj9-z-61" value="水箱补充" style="edgeStyle=orthogonalEdgeStyle;rounded=0;orthogonalLoop=1;jettySize=auto;html=1;fontSize=12;" edge="1" parent="WIyWlLk6GJQsqaUBKTNV-1" source="nWi5VwVpe2gakzUOj9-z-56" target="nWi5VwVpe2gakzUOj9-z-60">
          <mxGeometry relative="1" as="geometry" />
        </mxCell>
        <mxCell id="nWi5VwVpe2gakzUOj9-z-56" value="补水方式" style="rhombus;whiteSpace=wrap;html=1;" vertex="1" parent="WIyWlLk6GJQsqaUBKTNV-1">
          <mxGeometry x="765" y="350" width="80" height="80" as="geometry" />
        </mxCell>
        <mxCell id="nWi5VwVpe2gakzUOj9-z-66" style="edgeStyle=orthogonalEdgeStyle;rounded=0;orthogonalLoop=1;jettySize=auto;html=1;entryX=0.5;entryY=0;entryDx=0;entryDy=0;fontSize=12;" edge="1" parent="WIyWlLk6GJQsqaUBKTNV-1" source="nWi5VwVpe2gakzUOj9-z-58" target="nWi5VwVpe2gakzUOj9-z-62">
          <mxGeometry relative="1" as="geometry">
            <Array as="points">
              <mxPoint x="670" y="610" />
              <mxPoint x="965" y="610" />
            </Array>
          </mxGeometry>
        </mxCell>
        <mxCell id="nWi5VwVpe2gakzUOj9-z-58" value="一补二处理" style="whiteSpace=wrap;html=1;" vertex="1" parent="WIyWlLk6GJQsqaUBKTNV-1">
          <mxGeometry x="610" y="520" width="120" height="60" as="geometry" />
        </mxCell>
        <mxCell id="nWi5VwVpe2gakzUOj9-z-67" style="edgeStyle=orthogonalEdgeStyle;rounded=0;orthogonalLoop=1;jettySize=auto;html=1;fontSize=12;endArrow=none;endFill=0;" edge="1" parent="WIyWlLk6GJQsqaUBKTNV-1" source="nWi5VwVpe2gakzUOj9-z-60">
          <mxGeometry relative="1" as="geometry">
            <mxPoint x="805" y="610" as="targetPoint" />
          </mxGeometry>
        </mxCell>
        <mxCell id="nWi5VwVpe2gakzUOj9-z-60" value="水箱补水处理" style="whiteSpace=wrap;html=1;" vertex="1" parent="WIyWlLk6GJQsqaUBKTNV-1">
          <mxGeometry x="745" y="520" width="120" height="60" as="geometry" />
        </mxCell>
        <mxCell id="nWi5VwVpe2gakzUOj9-z-69" value="" style="edgeStyle=orthogonalEdgeStyle;rounded=0;orthogonalLoop=1;jettySize=auto;html=1;fontSize=12;endArrow=classic;endFill=1;" edge="1" parent="WIyWlLk6GJQsqaUBKTNV-1" source="nWi5VwVpe2gakzUOj9-z-62" target="nWi5VwVpe2gakzUOj9-z-68">
          <mxGeometry relative="1" as="geometry" />
        </mxCell>
        <mxCell id="nWi5VwVpe2gakzUOj9-z-62" value="仪表数据读取" style="whiteSpace=wrap;html=1;" vertex="1" parent="WIyWlLk6GJQsqaUBKTNV-1">
          <mxGeometry x="905" y="640" width="120" height="60" as="geometry" />
        </mxCell>
        <mxCell id="nWi5VwVpe2gakzUOj9-z-64" value="结束" style="rounded=1;whiteSpace=wrap;html=1;fontSize=12;" vertex="1" parent="WIyWlLk6GJQsqaUBKTNV-1">
          <mxGeometry x="920" y="860" width="90" height="30" as="geometry" />
        </mxCell>
        <mxCell id="nWi5VwVpe2gakzUOj9-z-70" value="正常" style="edgeStyle=orthogonalEdgeStyle;rounded=0;orthogonalLoop=1;jettySize=auto;html=1;fontSize=12;endArrow=classic;endFill=1;" edge="1" parent="WIyWlLk6GJQsqaUBKTNV-1" source="nWi5VwVpe2gakzUOj9-z-68" target="nWi5VwVpe2gakzUOj9-z-64">
          <mxGeometry relative="1" as="geometry" />
        </mxCell>
        <mxCell id="nWi5VwVpe2gakzUOj9-z-72" value="水箱水量低" style="edgeStyle=orthogonalEdgeStyle;rounded=0;orthogonalLoop=1;jettySize=auto;html=1;fontSize=12;endArrow=classic;endFill=1;" edge="1" parent="WIyWlLk6GJQsqaUBKTNV-1" source="nWi5VwVpe2gakzUOj9-z-68" target="nWi5VwVpe2gakzUOj9-z-71">
          <mxGeometry relative="1" as="geometry" />
        </mxCell>
        <mxCell id="nWi5VwVpe2gakzUOj9-z-68" value="水箱液位判断" style="rhombus;whiteSpace=wrap;html=1;" vertex="1" parent="WIyWlLk6GJQsqaUBKTNV-1">
          <mxGeometry x="925" y="730" width="80" height="80" as="geometry" />
        </mxCell>
        <mxCell id="nWi5VwVpe2gakzUOj9-z-73" style="edgeStyle=orthogonalEdgeStyle;rounded=0;orthogonalLoop=1;jettySize=auto;html=1;entryX=0.5;entryY=0;entryDx=0;entryDy=0;fontSize=12;endArrow=classic;endFill=1;" edge="1" parent="WIyWlLk6GJQsqaUBKTNV-1" source="nWi5VwVpe2gakzUOj9-z-71" target="nWi5VwVpe2gakzUOj9-z-64">
          <mxGeometry relative="1" as="geometry">
            <Array as="points">
              <mxPoint x="760" y="850" />
              <mxPoint x="965" y="850" />
            </Array>
          </mxGeometry>
        </mxCell>
        <mxCell id="nWi5VwVpe2gakzUOj9-z-71" value="补充水箱水量&lt;br&gt;到设定值" style="whiteSpace=wrap;html=1;" vertex="1" parent="WIyWlLk6GJQsqaUBKTNV-1">
          <mxGeometry x="700" y="740" width="120" height="60" as="geometry" />
        </mxCell>
        <mxCell id="nWi5VwVpe2gakzUOj9-z-74" value="&lt;h1&gt;&lt;font style=&quot;font-size: 20px;&quot;&gt;非供暖期&lt;/font&gt;&lt;/h1&gt;&lt;p&gt;在试运行静态测试的基础上，定期调整电调阀开度。往复运动范围逐渐增加，避免阀门运动阻力增加甚至卡死。&lt;/p&gt;" style="text;html=1;strokeColor=none;fillColor=none;spacing=5;spacingTop=-20;whiteSpace=wrap;overflow=hidden;rounded=0;fontSize=12;" vertex="1" parent="WIyWlLk6GJQsqaUBKTNV-1">
          <mxGeometry x="1390" y="130" width="190" height="120" as="geometry" />
        </mxCell>
      </root>
    </mxGraphModel>
  </diagram>
</mxfile>
